PathFileType  4	(X/Y/Z) C:\Users\antoi\Documents\MyRepositories\mobilecap\ResultsAnalysis
DataRate	CameraRate	NumFrames	NumMarkers	Units	OrigDataRate	OrigDataStartFrame	OrigNumFrames
100.0	100.0	5	51	mm	100.0	428	1139
Frame#	Time	r_knee			r_shank_antsup			r_ankle			r_calc			r_5meta			r_toe			L_knee			L_shank_antsup			L_ankle			L_calc			L_5meta			L_toe			r_sh2			r_sh3			r_sh4			L_sh2			L_sh3			r_thigh1			r_thigh2			r_thigh3			r_thigh4			r_thigh5			L_thigh1			L_thigh2			L_thigh3			L_thigh4			r.ASIS			r.PSIS			L.ASIS			L.PSIS			C7			R_Shoulder			L_Shoulder			R_Sternum			L_Sternum			R_humerus			R_elbow_med			R_elbow_lat			R_forearm			R_wrist_radius			R_wrist_ulna			L_humerus			L_elbow_med			L_elbow_lat			L_forearm			L_wrist_radius			L_wrist_ulna			R_HJC			L_HJC			R_HJC_reg			L_HJC_reg			
		X1	Y1	Z1	X2	Y2	Z2	X3	Y3	Z3	X4	Y4	Z4	X5	Y5	Z5	X6	Y6	Z6	X7	Y7	Z7	X8	Y8	Z8	X9	Y9	Z9	X10	Y10	Z10	X11	Y11	Z11	X12	Y12	Z12	X13	Y13	Z13	X14	Y14	Z14	X15	Y15	Z15	X16	Y16	Z16	X17	Y17	Z17	X18	Y18	Z18	X19	Y19	Z19	X20	Y20	Z20	X21	Y21	Z21	X22	Y22	Z22	X23	Y23	Z23	X24	Y24	Z24	X25	Y25	Z25	X26	Y26	Z26	X27	Y27	Z27	X28	Y28	Z28	X29	Y29	Z29	X30	Y30	Z30	X31	Y31	Z31	X32	Y32	Z32	X33	Y33	Z33	X34	Y34	Z34	X35	Y35	Z35	X36	Y36	Z36	X37	Y37	Z37	X38	Y38	Z38	X39	Y39	Z39	X40	Y40	Z40	X41	Y41	Z41	X42	Y42	Z42	X43	Y43	Z43	X44	Y44	Z44	X45	Y45	Z45	X46	Y46	Z46	X47	Y47	Z47	X48	Y48	Z48	X49	Y49	Z49	X50	Y50	Z50	X51	Y51	Z51	

428	4.27000000	-271.24167	590.43529	-360.47238	-213.73796	460.30296	-338.72373	-306.71410	105.62728	-306.72220	-361.89019	73.15774	-370.50084	-174.01571	44.91638	-265.09850	-132.34190	73.73469	-311.74896	-285.74592	582.67781	-923.35107	-213.10834	405.21917	-927.22262	-321.28957	113.13351	-939.45512	-378.31203	75.55459	-880.09850	-182.86001	37.15373	-980.83438	-140.20603	69.73585	-924.78885	-225.43094	346.77556	-332.64669	-282.57365	465.87187	-309.70492	-297.09152	357.57182	-291.65269	-284.70820	423.20842	-975.11298	-303.71123	305.54703	-966.20370	-550.27578	657.42663	-398.66263	-441.48348	665.02139	-376.12744	-421.24385	600.84716	-358.34641	-550.46659	546.44966	-403.55085	-433.47878	548.65888	-379.83917	-555.95966	678.47462	-852.05976	-426.56189	672.49092	-887.88630	-574.64153	573.06950	-877.04234	-442.02164	569.07105	-919.26294	-636.28500	713.97109	-491.71843	-819.11622	716.22604	-587.41342	-636.45215	699.06256	-763.22631	-818.25687	717.39556	-678.36165	-636.65055	1186.70892	-635.00355	-570.17978	1139.27200	-468.64862	-579.38812	1151.22068	-802.60849	-507.02008	1081.40112	-608.36306	-505.35845	1080.80548	-656.89869	-511.61992	900.31584	-376.25431	-554.57617	746.14386	-384.12458	-530.36589	789.93615	-309.79435	-359.04748	855.41961	-415.56570	-290.08646	887.00866	-467.18630	-276.46706	855.82622	-449.43926	-501.05432	893.14920	-871.59877	-564.00486	770.37284	-864.83889	-511.20047	800.61074	-924.94562	-350.97019	859.74073	-812.98283	-301.33861	888.37623	-762.69341	-289.48720	860.45774	-779.39155	-700.63841	607.92911	-526.76647	-703.60976	601.33344	-724.11054	-691.54129	613.10867	-532.15239	-689.84569	615.41623	-711.59428	
429	4.28000000	-271.28413	590.50191	-360.34097	-213.83770	460.38569	-338.67236	-306.76768	105.67458	-306.75415	-361.92737	73.15820	-370.54084	-174.01189	44.99972	-265.13855	-132.37852	73.77936	-311.83513	-285.99559	582.70909	-923.47020	-213.19036	405.30687	-927.13056	-321.35187	113.19049	-939.51923	-378.41219	75.53316	-880.18171	-182.85926	37.39918	-980.91157	-140.25623	69.97419	-924.80796	-225.52057	346.86736	-332.61926	-282.63119	465.87367	-309.80806	-297.10877	357.68939	-291.62737	-284.61702	423.21231	-975.16961	-303.61549	305.66171	-966.45269	-550.11445	657.64403	-398.46526	-441.41803	665.15784	-375.94816	-421.15644	600.92389	-358.17496	-550.38270	546.63179	-403.52042	-433.46450	548.82735	-379.61454	-556.14165	678.62152	-851.90063	-426.74582	672.75288	-888.20395	-574.98609	573.35880	-876.87231	-442.29396	569.19312	-919.22018	-637.05294	715.00437	-491.76772	-819.67964	716.16908	-587.14700	-637.26340	699.93771	-763.00602	-818.69825	717.17750	-677.95290	-644.09690	1188.48066	-635.40707	-577.36005	1141.75972	-468.47308	-586.84922	1153.38826	-803.35270	-513.39323	1084.89313	-608.49416	-511.35624	1084.15314	-657.51416	-520.24459	902.17073	-375.82147	-563.80842	748.26658	-384.33962	-539.86894	791.81045	-309.56196	-367.89458	856.41889	-415.04380	-298.59129	887.61166	-466.48485	-285.13356	856.50003	-448.46118	-509.98017	894.27284	-872.80157	-571.97825	772.30817	-863.56269	-520.72570	801.95498	-925.93389	-359.88359	860.83006	-814.96378	-309.90822	889.18705	-764.51130	-298.11369	861.44533	-781.64577	-700.59349	608.57433	-526.49998	-703.67935	601.81596	-723.83655	-691.91774	614.04188	-532.05929	-689.97823	616.03230	-711.32538	
430	4.29000000	-271.44005	590.56723	-360.35687	-214.09826	460.53401	-338.64062	-306.87714	105.66972	-306.82672	-361.97496	73.13590	-370.59569	-174.00642	45.04992	-265.15836	-132.41393	73.81033	-311.91318	-286.29569	582.79577	-923.42932	-213.40301	405.41733	-926.90389	-321.51370	113.22470	-939.56669	-378.61884	75.48041	-880.30870	-182.85413	37.77009	-981.10930	-140.33352	70.29873	-924.88355	-225.64561	346.97391	-332.64585	-282.82725	465.82879	-310.02758	-296.86938	356.89147	-291.78329	-284.59678	423.24581	-975.14656	-303.62819	305.71747	-966.47137	-550.09068	657.83886	-398.16914	-441.56094	665.25543	-375.74349	-421.21592	601.04027	-358.07233	-550.52537	546.83722	-403.51354	-433.62760	549.03385	-379.39754	-556.38802	678.89334	-851.71204	-426.94732	673.14963	-888.47838	-575.33003	573.71659	-876.61834	-442.61320	569.36314	-919.08415	-637.95894	716.05546	-492.01349	-820.51667	716.11427	-586.83151	-638.10070	700.78413	-762.96323	-818.80193	717.01340	-677.36072	-650.99973	1189.96203	-636.21478	-584.10509	1144.07123	-468.54069	-593.85799	1155.52374	-803.99093	-519.31213	1088.18887	-608.84037	-517.06006	1087.30672	-658.09013	-528.41425	903.96356	-375.54750	-572.83131	750.27370	-384.33801	-548.99036	793.62849	-309.50656	-376.29514	857.25857	-414.40221	-306.74602	888.19938	-465.65877	-293.44992	857.05376	-447.55310	-518.57055	895.29465	-873.83041	-580.14767	774.01816	-862.84851	-530.02640	803.13074	-926.56651	-368.16102	861.89826	-817.23821	-318.22092	890.17778	-766.56188	-306.43902	862.26871	-783.82737	-700.57499	609.23377	-526.27017	-703.80849	602.30488	-723.59836	-692.96148	614.90501	-532.58116	-689.56789	616.68343	-711.64370	
431	4.30000000	-271.77113	590.67273	-360.37300	-214.48836	460.66075	-338.60761	-307.02567	105.69334	-306.91521	-362.02931	73.09935	-370.66117	-174.02179	45.07462	-265.17956	-132.45806	73.83655	-311.99240	-286.63456	582.88577	-923.24676	-213.69440	405.50636	-926.57714	-321.71212	113.23644	-939.57846	-378.85837	75.40477	-880.39981	-182.87358	38.09986	-981.23702	-140.40999	70.64744	-924.92640	-225.86013	347.06072	-332.66599	-283.20080	465.89046	-310.14504	-296.94381	356.01141	-292.10400	-284.71653	423.37118	-975.11847	-303.75649	305.73612	-966.32185	-550.24324	658.00948	-397.90532	-441.92634	665.41406	-375.53766	-421.40085	601.21068	-357.99268	-550.85936	547.12697	-403.50193	-433.89499	549.20240	-379.34722	-556.69478	679.20835	-851.48817	-427.24688	673.39390	-888.25013	-575.64980	574.06331	-876.28887	-442.95449	569.54234	-918.81219	-638.88995	716.93457	-492.23213	-821.50592	716.07791	-586.55184	-639.03042	701.50287	-763.05319	-819.25230	716.94423	-677.05556	-657.51755	1191.24261	-636.90469	-590.35017	1146.19432	-468.64969	-600.42616	1157.48398	-804.61904	-524.48642	1091.13602	-609.42776	-522.39945	1090.30040	-658.67590	-536.10873	905.50677	-375.33641	-581.44427	752.09777	-384.19705	-557.57038	795.40029	-309.47898	-384.21554	858.00481	-413.61343	-314.59156	888.79575	-464.66769	-301.34270	857.41462	-446.69254	-526.65091	896.33758	-874.97533	-588.76105	775.44905	-863.11122	-539.01574	804.26489	-927.24666	-376.12776	862.79664	-819.29403	-326.15983	891.24484	-768.64120	-314.37860	862.95932	-785.93844	-700.82719	609.79457	-526.17196	-704.20631	602.74461	-723.49362	-693.95978	615.52555	-533.05943	-689.50354	617.23906	-712.02900	
432	4.31000000	-272.32358	590.75938	-360.45530	-214.96265	460.71515	-338.66420	-307.16868	105.75750	-306.98235	-362.08641	73.06977	-370.72967	-174.05083	45.13125	-265.21020	-132.51706	73.88729	-312.07286	-287.02660	582.87695	-922.81610	-213.94198	405.58935	-926.25705	-321.88273	113.24102	-939.52860	-379.05591	75.27217	-880.32866	-182.92978	38.27123	-981.11613	-140.50339	70.93423	-924.91510	-226.19132	347.15980	-332.69334	-283.75990	466.09476	-310.11456	-297.38403	355.79888	-292.48420	-284.93373	423.57983	-975.05040	-303.93864	305.79503	-966.13183	-550.67436	658.16725	-397.84823	-442.34787	665.68523	-375.37411	-421.75664	601.45335	-357.92003	-551.29253	547.43991	-403.45307	-434.24149	549.27589	-379.51417	-556.98366	679.53815	-851.25962	-427.55043	673.46372	-887.69454	-576.00163	574.43081	-876.01058	-443.32381	569.72266	-918.45193	-639.84720	717.49758	-492.27275	-822.45969	716.03509	-586.33618	-639.97831	702.08745	-762.83843	-820.20836	716.89313	-677.03688	-663.71640	1192.38762	-637.17974	-596.07731	1147.93301	-468.80037	-606.54608	1159.17446	-805.22273	-529.27572	1093.91388	-610.03409	-527.47319	1093.20676	-659.23197	-543.21906	906.70972	-374.98688	-589.52421	753.64483	-384.02015	-565.58053	796.97447	-309.21983	-391.71128	858.69453	-412.78654	-321.88753	889.23762	-463.66548	-308.79333	857.63762	-445.83181	-534.17492	897.38205	-876.15716	-597.04210	776.82618	-863.55734	-547.53182	805.31288	-928.02240	-383.92768	863.49747	-820.93240	-333.52096	892.12161	-770.75948	-321.87070	863.57312	-788.05308	-701.41346	610.15650	-526.07465	-704.79757	603.09640	-723.39587	-694.60142	616.01914	-533.03521	-690.16294	617.71092	-711.83666	
